<mxfile host="Electron" modified="2024-05-16T10:19:29.756Z" agent="Mozilla/5.0 (Windows NT 10.0; Win64; x64) AppleWebKit/537.36 (KHTML, like Gecko) draw.io/24.2.5 Chrome/120.0.6099.109 Electron/28.1.0 Safari/537.36" etag="-p86fL1U2r0jAbAnAPdX" version="24.2.5" type="device">
  <diagram name="PÃ¡gina-1" id="vRxYO6DMqXa_rJUMRlu8">
    <mxGraphModel dx="607" dy="836" grid="1" gridSize="10" guides="1" tooltips="1" connect="1" arrows="1" fold="1" page="1" pageScale="1" pageWidth="827" pageHeight="1169" math="0" shadow="0">
      <root>
        <mxCell id="0" />
        <mxCell id="1" parent="0" />
        <mxCell id="k03Bdu_cSl1INezrBL65-53" value="" style="rounded=0;whiteSpace=wrap;html=1;" vertex="1" parent="1">
          <mxGeometry x="1526" y="850" width="61" height="80" as="geometry" />
        </mxCell>
        <mxCell id="k03Bdu_cSl1INezrBL65-54" value="&lt;font style=&quot;font-size: 14px;&quot;&gt;A&lt;/font&gt;" style="text;html=1;align=center;verticalAlign=middle;whiteSpace=wrap;rounded=0;" vertex="1" parent="1">
          <mxGeometry x="1526.5" y="850" width="18" height="16" as="geometry" />
        </mxCell>
        <mxCell id="k03Bdu_cSl1INezrBL65-55" value="&lt;font style=&quot;font-size: 14px;&quot;&gt;Ci&lt;/font&gt;" style="text;html=1;align=center;verticalAlign=middle;whiteSpace=wrap;rounded=0;" vertex="1" parent="1">
          <mxGeometry x="1528" y="911.63" width="14" height="16.75" as="geometry" />
        </mxCell>
        <mxCell id="k03Bdu_cSl1INezrBL65-56" value="&lt;font style=&quot;font-size: 14px;&quot;&gt;Co&lt;/font&gt;" style="text;html=1;align=center;verticalAlign=middle;whiteSpace=wrap;rounded=0;" vertex="1" parent="1">
          <mxGeometry x="1564" y="910.88" width="23" height="18.25" as="geometry" />
        </mxCell>
        <mxCell id="k03Bdu_cSl1INezrBL65-58" value="&lt;font style=&quot;font-size: 14px;&quot;&gt;B&lt;/font&gt;" style="text;html=1;align=center;verticalAlign=middle;whiteSpace=wrap;rounded=0;" vertex="1" parent="1">
          <mxGeometry x="1526.5" y="880" width="18" height="16" as="geometry" />
        </mxCell>
        <mxCell id="k03Bdu_cSl1INezrBL65-59" value="" style="rounded=0;whiteSpace=wrap;html=1;" vertex="1" parent="1">
          <mxGeometry x="1667.5" y="850" width="61" height="80" as="geometry" />
        </mxCell>
        <mxCell id="k03Bdu_cSl1INezrBL65-60" value="&lt;font style=&quot;font-size: 14px;&quot;&gt;A&lt;/font&gt;" style="text;html=1;align=center;verticalAlign=middle;whiteSpace=wrap;rounded=0;" vertex="1" parent="1">
          <mxGeometry x="1668" y="850" width="18" height="16" as="geometry" />
        </mxCell>
        <mxCell id="k03Bdu_cSl1INezrBL65-61" value="&lt;font style=&quot;font-size: 14px;&quot;&gt;Ci&lt;/font&gt;" style="text;html=1;align=center;verticalAlign=middle;whiteSpace=wrap;rounded=0;" vertex="1" parent="1">
          <mxGeometry x="1669.5" y="911.63" width="14" height="16.75" as="geometry" />
        </mxCell>
        <mxCell id="k03Bdu_cSl1INezrBL65-62" value="&lt;font style=&quot;font-size: 14px;&quot;&gt;Co&lt;/font&gt;" style="text;html=1;align=center;verticalAlign=middle;whiteSpace=wrap;rounded=0;" vertex="1" parent="1">
          <mxGeometry x="1705.5" y="910.88" width="23" height="18.25" as="geometry" />
        </mxCell>
        <mxCell id="k03Bdu_cSl1INezrBL65-64" value="&lt;font style=&quot;font-size: 14px;&quot;&gt;B&lt;/font&gt;" style="text;html=1;align=center;verticalAlign=middle;whiteSpace=wrap;rounded=0;" vertex="1" parent="1">
          <mxGeometry x="1668" y="880" width="18" height="16" as="geometry" />
        </mxCell>
        <mxCell id="k03Bdu_cSl1INezrBL65-65" value="" style="endArrow=classic;html=1;rounded=0;exitX=1;exitY=0.5;exitDx=0;exitDy=0;" edge="1" parent="1" source="k03Bdu_cSl1INezrBL65-56">
          <mxGeometry width="50" height="50" relative="1" as="geometry">
            <mxPoint x="1609.5" y="919.81" as="sourcePoint" />
            <mxPoint x="1667" y="920" as="targetPoint" />
          </mxGeometry>
        </mxCell>
        <mxCell id="k03Bdu_cSl1INezrBL65-67" value="" style="endArrow=classic;html=1;rounded=0;" edge="1" parent="1">
          <mxGeometry width="50" height="50" relative="1" as="geometry">
            <mxPoint x="1640" y="850" as="sourcePoint" />
            <mxPoint x="1667.5" y="857.76" as="targetPoint" />
            <Array as="points">
              <mxPoint x="1640" y="858" />
            </Array>
          </mxGeometry>
        </mxCell>
        <mxCell id="k03Bdu_cSl1INezrBL65-68" value="" style="endArrow=classic;html=1;rounded=0;" edge="1" parent="1">
          <mxGeometry width="50" height="50" relative="1" as="geometry">
            <mxPoint x="1640" y="880" as="sourcePoint" />
            <mxPoint x="1667.5" y="887.76" as="targetPoint" />
            <Array as="points">
              <mxPoint x="1640" y="888" />
            </Array>
          </mxGeometry>
        </mxCell>
        <mxCell id="k03Bdu_cSl1INezrBL65-69" value="" style="endArrow=classic;html=1;rounded=0;" edge="1" parent="1">
          <mxGeometry width="50" height="50" relative="1" as="geometry">
            <mxPoint x="1498.5" y="850" as="sourcePoint" />
            <mxPoint x="1526" y="857.76" as="targetPoint" />
            <Array as="points">
              <mxPoint x="1498.5" y="858" />
            </Array>
          </mxGeometry>
        </mxCell>
        <mxCell id="k03Bdu_cSl1INezrBL65-70" value="" style="endArrow=classic;html=1;rounded=0;" edge="1" parent="1">
          <mxGeometry width="50" height="50" relative="1" as="geometry">
            <mxPoint x="1498.5" y="880" as="sourcePoint" />
            <mxPoint x="1526" y="887.76" as="targetPoint" />
            <Array as="points">
              <mxPoint x="1498.5" y="888" />
            </Array>
          </mxGeometry>
        </mxCell>
        <mxCell id="k03Bdu_cSl1INezrBL65-71" value="A[0]" style="text;html=1;align=center;verticalAlign=middle;whiteSpace=wrap;rounded=0;" vertex="1" parent="1">
          <mxGeometry x="1485" y="832" width="30" height="18" as="geometry" />
        </mxCell>
        <mxCell id="k03Bdu_cSl1INezrBL65-72" value="B[0]" style="text;html=1;align=center;verticalAlign=middle;whiteSpace=wrap;rounded=0;" vertex="1" parent="1">
          <mxGeometry x="1485" y="862" width="30" height="18" as="geometry" />
        </mxCell>
        <mxCell id="k03Bdu_cSl1INezrBL65-73" value="A[1]" style="text;html=1;align=center;verticalAlign=middle;whiteSpace=wrap;rounded=0;" vertex="1" parent="1">
          <mxGeometry x="1627" y="832" width="30" height="18" as="geometry" />
        </mxCell>
        <mxCell id="k03Bdu_cSl1INezrBL65-74" value="B[1]" style="text;html=1;align=center;verticalAlign=middle;whiteSpace=wrap;rounded=0;" vertex="1" parent="1">
          <mxGeometry x="1627" y="862" width="30" height="18" as="geometry" />
        </mxCell>
        <mxCell id="k03Bdu_cSl1INezrBL65-75" value="" style="endArrow=classic;html=1;rounded=0;" edge="1" parent="1">
          <mxGeometry width="50" height="50" relative="1" as="geometry">
            <mxPoint x="1498" y="913" as="sourcePoint" />
            <mxPoint x="1525.5" y="920.76" as="targetPoint" />
            <Array as="points">
              <mxPoint x="1498" y="921" />
            </Array>
          </mxGeometry>
        </mxCell>
        <mxCell id="k03Bdu_cSl1INezrBL65-76" value="&#39;1&#39;" style="text;html=1;align=center;verticalAlign=middle;whiteSpace=wrap;rounded=0;" vertex="1" parent="1">
          <mxGeometry x="1483" y="896" width="30" height="18" as="geometry" />
        </mxCell>
        <mxCell id="k03Bdu_cSl1INezrBL65-77" value="&lt;font style=&quot;font-size: 15px;&quot;&gt;. . .&lt;/font&gt;" style="text;html=1;align=center;verticalAlign=middle;whiteSpace=wrap;rounded=0;" vertex="1" parent="1">
          <mxGeometry x="1753" y="891.63" width="30" height="20" as="geometry" />
        </mxCell>
        <mxCell id="k03Bdu_cSl1INezrBL65-79" value="" style="rounded=0;whiteSpace=wrap;html=1;" vertex="1" parent="1">
          <mxGeometry x="1820.5" y="850" width="61" height="80" as="geometry" />
        </mxCell>
        <mxCell id="k03Bdu_cSl1INezrBL65-80" value="&lt;font style=&quot;font-size: 14px;&quot;&gt;A&lt;/font&gt;" style="text;html=1;align=center;verticalAlign=middle;whiteSpace=wrap;rounded=0;" vertex="1" parent="1">
          <mxGeometry x="1821" y="850" width="18" height="16" as="geometry" />
        </mxCell>
        <mxCell id="k03Bdu_cSl1INezrBL65-81" value="&lt;font style=&quot;font-size: 14px;&quot;&gt;Ci&lt;/font&gt;" style="text;html=1;align=center;verticalAlign=middle;whiteSpace=wrap;rounded=0;" vertex="1" parent="1">
          <mxGeometry x="1822.5" y="911.63" width="14" height="16.75" as="geometry" />
        </mxCell>
        <mxCell id="k03Bdu_cSl1INezrBL65-82" value="&lt;font style=&quot;font-size: 14px;&quot;&gt;Co&lt;/font&gt;" style="text;html=1;align=center;verticalAlign=middle;whiteSpace=wrap;rounded=0;" vertex="1" parent="1">
          <mxGeometry x="1858.5" y="910.88" width="23" height="18.25" as="geometry" />
        </mxCell>
        <mxCell id="k03Bdu_cSl1INezrBL65-84" value="&lt;font style=&quot;font-size: 14px;&quot;&gt;B&lt;/font&gt;" style="text;html=1;align=center;verticalAlign=middle;whiteSpace=wrap;rounded=0;" vertex="1" parent="1">
          <mxGeometry x="1821" y="880" width="18" height="16" as="geometry" />
        </mxCell>
        <mxCell id="k03Bdu_cSl1INezrBL65-85" value="" style="endArrow=classic;html=1;rounded=0;" edge="1" parent="1">
          <mxGeometry width="50" height="50" relative="1" as="geometry">
            <mxPoint x="1793" y="850" as="sourcePoint" />
            <mxPoint x="1820.5" y="857.76" as="targetPoint" />
            <Array as="points">
              <mxPoint x="1793" y="858" />
            </Array>
          </mxGeometry>
        </mxCell>
        <mxCell id="k03Bdu_cSl1INezrBL65-86" value="" style="endArrow=classic;html=1;rounded=0;" edge="1" parent="1">
          <mxGeometry width="50" height="50" relative="1" as="geometry">
            <mxPoint x="1793" y="880" as="sourcePoint" />
            <mxPoint x="1820.5" y="887.76" as="targetPoint" />
            <Array as="points">
              <mxPoint x="1793" y="888" />
            </Array>
          </mxGeometry>
        </mxCell>
        <mxCell id="k03Bdu_cSl1INezrBL65-87" value="A[8]" style="text;html=1;align=center;verticalAlign=middle;whiteSpace=wrap;rounded=0;" vertex="1" parent="1">
          <mxGeometry x="1780" y="832" width="30" height="18" as="geometry" />
        </mxCell>
        <mxCell id="k03Bdu_cSl1INezrBL65-88" value="B[8]" style="text;html=1;align=center;verticalAlign=middle;whiteSpace=wrap;rounded=0;" vertex="1" parent="1">
          <mxGeometry x="1780" y="862" width="30" height="18" as="geometry" />
        </mxCell>
        <mxCell id="k03Bdu_cSl1INezrBL65-90" value="" style="rounded=0;whiteSpace=wrap;html=1;" vertex="1" parent="1">
          <mxGeometry x="1960.5" y="850" width="61" height="80" as="geometry" />
        </mxCell>
        <mxCell id="k03Bdu_cSl1INezrBL65-91" value="&lt;font style=&quot;font-size: 14px;&quot;&gt;A&lt;/font&gt;" style="text;html=1;align=center;verticalAlign=middle;whiteSpace=wrap;rounded=0;" vertex="1" parent="1">
          <mxGeometry x="1961" y="850" width="18" height="16" as="geometry" />
        </mxCell>
        <mxCell id="k03Bdu_cSl1INezrBL65-92" value="&lt;font style=&quot;font-size: 14px;&quot;&gt;Ci&lt;/font&gt;" style="text;html=1;align=center;verticalAlign=middle;whiteSpace=wrap;rounded=0;" vertex="1" parent="1">
          <mxGeometry x="1962.5" y="911.63" width="14" height="16.75" as="geometry" />
        </mxCell>
        <mxCell id="k03Bdu_cSl1INezrBL65-94" value="&lt;font style=&quot;font-size: 14px;&quot;&gt;Z&lt;/font&gt;" style="text;html=1;align=center;verticalAlign=middle;whiteSpace=wrap;rounded=0;" vertex="1" parent="1">
          <mxGeometry x="2004.5" y="883" width="17" height="16" as="geometry" />
        </mxCell>
        <mxCell id="k03Bdu_cSl1INezrBL65-95" value="&lt;font style=&quot;font-size: 14px;&quot;&gt;B&lt;/font&gt;" style="text;html=1;align=center;verticalAlign=middle;whiteSpace=wrap;rounded=0;" vertex="1" parent="1">
          <mxGeometry x="1961" y="880" width="18" height="16" as="geometry" />
        </mxCell>
        <mxCell id="k03Bdu_cSl1INezrBL65-96" value="" style="endArrow=classic;html=1;rounded=0;" edge="1" parent="1">
          <mxGeometry width="50" height="50" relative="1" as="geometry">
            <mxPoint x="1933" y="850" as="sourcePoint" />
            <mxPoint x="1960.5" y="857.76" as="targetPoint" />
            <Array as="points">
              <mxPoint x="1933" y="858" />
            </Array>
          </mxGeometry>
        </mxCell>
        <mxCell id="k03Bdu_cSl1INezrBL65-97" value="" style="endArrow=classic;html=1;rounded=0;" edge="1" parent="1">
          <mxGeometry width="50" height="50" relative="1" as="geometry">
            <mxPoint x="1933" y="880" as="sourcePoint" />
            <mxPoint x="1960.5" y="887.76" as="targetPoint" />
            <Array as="points">
              <mxPoint x="1933" y="888" />
            </Array>
          </mxGeometry>
        </mxCell>
        <mxCell id="k03Bdu_cSl1INezrBL65-98" value="A[8]" style="text;html=1;align=center;verticalAlign=middle;whiteSpace=wrap;rounded=0;" vertex="1" parent="1">
          <mxGeometry x="1920" y="832" width="30" height="18" as="geometry" />
        </mxCell>
        <mxCell id="k03Bdu_cSl1INezrBL65-99" value="B[8]" style="text;html=1;align=center;verticalAlign=middle;whiteSpace=wrap;rounded=0;" vertex="1" parent="1">
          <mxGeometry x="1920" y="862" width="30" height="18" as="geometry" />
        </mxCell>
        <mxCell id="k03Bdu_cSl1INezrBL65-100" value="" style="endArrow=classic;html=1;rounded=0;exitX=0.993;exitY=0.203;exitDx=0;exitDy=0;exitPerimeter=0;" edge="1" parent="1">
          <mxGeometry width="50" height="50" relative="1" as="geometry">
            <mxPoint x="2021.5" y="890.88" as="sourcePoint" />
            <mxPoint x="2039.5" y="950.88" as="targetPoint" />
            <Array as="points">
              <mxPoint x="2039.5" y="890.88" />
            </Array>
          </mxGeometry>
        </mxCell>
        <mxCell id="k03Bdu_cSl1INezrBL65-102" value="" style="endArrow=classic;html=1;rounded=0;exitX=1;exitY=0.5;exitDx=0;exitDy=0;" edge="1" parent="1">
          <mxGeometry width="50" height="50" relative="1" as="geometry">
            <mxPoint x="1881.5" y="919.72" as="sourcePoint" />
            <mxPoint x="1961.5" y="919.72" as="targetPoint" />
          </mxGeometry>
        </mxCell>
        <mxCell id="k03Bdu_cSl1INezrBL65-103" value="B greater than A" style="text;html=1;align=center;verticalAlign=middle;whiteSpace=wrap;rounded=0;" vertex="1" parent="1">
          <mxGeometry x="2004.5" y="960" width="70" height="18" as="geometry" />
        </mxCell>
      </root>
    </mxGraphModel>
  </diagram>
</mxfile>
